Coordinates
version=1
nRows=15
nColumns=42
inDegrees=yes

Units are S.I. units (second, meters, Newtons, ...)
If the header above contains a line with 'inDegrees', this indicates whether rotational values are in degrees (yes) or radians (no).

endheader
time	pelvis_tilt	pelvis_list	pelvis_rotation	pelvis_tx	pelvis_ty	pelvis_tz	hip_flexion_r	hip_adduction_r	hip_rotation_r	knee_angle_r	knee_adduction_r	knee_angle_r_beta	ankle_angle_r	subtalar_angle_r	mtp_angle_r	hip_flexion_l	hip_adduction_l	hip_rotation_l	knee_angle_l	knee_adduction_l	knee_angle_l_beta	ankle_angle_l	subtalar_angle_l	mtp_angle_l	lumbar_extension	lumbar_bending	lumbar_rotation	arm_flex_r	arm_add_r	arm_rot_r	elbow_flex_r	pro_sup_r	wrist_flex_r	wrist_dev_r	arm_flex_l	arm_add_l	arm_rot_l	elbow_flex_l	pro_sup_l	wrist_flex_l	wrist_dev_l
      1.75000000	      4.15508598	      0.06616943	     12.77504220	     -0.64843024	      0.87598268	     -0.18346680	     16.93392314	     -6.35860054	    -22.99372420	     29.12424809	     -2.95945820	      0.50831402	     12.28341337	     23.02314868	     -7.67393554	      1.75485429	      0.14869534	     -0.11379895	     35.07856430	     -4.24352945	      0.61223644	     23.98232497	     20.16144990	     -7.67393554	    -27.43818000	     11.76657864	     -4.66280456	      0.90785027	    -14.51968580	    -16.94055340	     48.83243140	     90.00000001	      0.00000000	      0.00000000	     19.28193920	     -8.52351539	     33.23070294	     48.65113398	     90.00000001	      0.00000000	      0.00000000
      1.76000000	      4.58898188	      0.09922384	     12.79885595	     -0.64408137	      0.87773332	     -0.18154634	     15.83696249	     -5.99708908	    -23.43742800	     28.46076203	     -3.09542287	      0.49673401	     12.85982566	     23.89611450	     -7.67124171	      0.93327238	     -0.21299052	     -0.13188975	     34.84367085	     -4.13020461	      0.60813678	     22.77636406	     20.06076705	     -7.67124171	    -27.86196321	     11.82852444	     -4.59317934	      1.03880785	    -14.63412337	    -16.37485724	     49.20981411	     90.00000001	      0.00000000	      0.00000000	     19.15285751	     -8.60761290	     33.67788253	     48.75902423	     90.00000001	      0.00000000	      0.00000000
      1.77000000	      4.43361588	      0.21059136	     12.66453194	     -0.64015162	      0.87842660	     -0.17961848	     15.67618457	     -5.99451094	    -23.56483681	     28.40481769	     -3.04692312	      0.49575759	     12.86678979	     23.94297355	     -7.67077840	      0.86049841	     -0.24892137	     -0.14000555	     34.90367824	     -4.06663019	      0.60918411	     22.69618200	     20.02846905	     -7.67077840	    -27.67893554	     11.65986603	     -4.54936146	      1.28262410	    -14.63146907	    -16.31725565	     49.35871497	     90.00000001	      0.00000000	      0.00000000	     18.88163281	     -8.59898113	     33.75529654	     48.71359796	     90.00000001	      0.00000000	      0.00000000
      1.78000000	      4.81344748	      0.35448341	     12.71160231	     -0.63573811	      0.88002930	     -0.17780981	     14.65913618	     -5.85797081	    -24.55839921	     27.81119993	     -3.33025251	      0.48539701	     13.14400732	     25.92950600	     -7.66581827	      0.11399732	     -0.48632224	     -0.02236847	     34.78511742	     -3.82384163	      0.60711483	     21.74434244	     19.55660115	     -7.66581827	    -28.00855596	     11.61444998	     -4.66939174	      1.43649963	    -14.74969524	    -15.69588753	     49.76028350	     90.00000001	      0.00000000	      0.00000000	     18.72140608	     -8.84236375	     34.47943433	     48.86519456	     90.00000001	      0.00000000	      0.00000000
      1.79000000	      4.72274328	      0.50524500	     12.62427452	     -0.63175095	      0.88077946	     -0.17588551	     14.35717652	     -5.89311628	    -24.87325266	     27.64203876	     -3.30853057	      0.48244459	     13.31615956	     26.29789048	     -7.66417028	      0.07597652	     -0.52935081	     -0.04690765	     35.06559513	     -3.71648492	      0.61201009	     21.25857234	     19.43335261	     -7.66417028	    -27.86006615	     11.42267385	     -4.74866180	      1.68224676	    -14.71732434	    -15.59932690	     49.94177774	     90.00000001	      0.00000000	      0.00000000	     18.50587991	     -8.91988746	     34.63613756	     48.81719435	     90.00000001	      0.00000000	      0.00000000
      1.80000000	      4.58298585	      0.62159869	     12.48745126	     -0.62782958	      0.88148834	     -0.17399642	     14.18685467	     -5.88949943	    -24.98715001	     27.59292570	     -3.27628054	      0.48158740	     13.35040559	     26.32585863	     -7.66376055	      0.05504570	     -0.54861264	     -0.03366115	     35.21118264	     -3.66757827	      0.61455107	     21.10833941	     19.40014310	     -7.66376055	    -27.67994747	     11.25740033	     -4.69611477	      1.91601464	    -14.69533680	    -15.55576148	     50.06811324	     90.00000001	      0.00000000	      0.00000000	     18.24515769	     -8.84185207	     34.72089307	     48.79322005	     90.00000001	      0.00000000	      0.00000000
      1.81000000	      4.70166762	      0.67629888	     12.64455497	     -0.62386469	      0.88255126	     -0.17229835	     13.50370009	     -5.75141621	    -25.66773949	     27.08401928	     -3.34753597	      0.47270531	     13.77643427	     27.46677139	     -7.66142819	      0.02728440	     -0.82233425	     -0.08691903	     35.79625779	     -3.54272334	      0.62476256	     19.71973813	     18.93667563	     -7.66142819	    -27.71730007	     11.29436278	     -4.90481136	      2.12354905	    -14.71317702	    -15.29587202	     50.29894963	     90.00000001	      0.00000000	      0.00000000	     18.12715037	     -9.02378228	     35.23563031	     48.85293991	     90.00000001	      0.00000000	      0.00000000
      1.82000000	      4.60817209	      0.80977380	     12.44537893	     -0.61977540	      0.88324134	     -0.17036477	     13.28879821	     -5.74196327	    -25.79764751	     27.03014849	     -3.33365204	      0.47176509	     13.79881607	     27.53144207	     -7.66122263	     -0.03481499	     -0.80865572	     -0.03707524	     36.00783651	     -3.48648693	      0.62845530	     19.59998703	     18.91858721	     -7.66122263	    -27.54556606	     11.09463693	     -4.85091350	      2.36184735	    -14.70636895	    -15.26086539	     50.41674219	     90.00000001	      0.00000000	      0.00000000	     17.84726677	     -8.95713614	     35.34129283	     48.80669099	     90.00000001	      0.00000000	      0.00000000
      1.83000000	      4.75100250	      0.83989182	     12.64443645	     -0.61588180	      0.88420942	     -0.16871341	     12.56435912	     -5.58496401	    -26.49349724	     26.49992041	     -3.37590454	      0.46251086	     14.13412812	     28.89400800	     -7.65827472	      0.09807158	     -1.12967846	     -0.03382225	     36.91011723	     -3.30786279	      0.64420307	     18.07011223	     18.18081478	     -7.65827472	    -27.60605519	     11.16294782	     -5.07624866	      2.53946840	    -14.73821375	    -14.94877920	     50.68245450	     90.00000001	      0.00000000	      0.00000000	     17.79256822	     -9.19007493	     36.03410745	     48.93195326	     90.00000001	      0.00000000	      0.00000000
      1.84000000	      4.72233472	      0.99721771	     12.46563326	     -0.61178288	      0.88492806	     -0.16690957	     12.28273817	     -5.59102836	    -26.56752923	     26.46441850	     -3.38403590	      0.46189124	     14.15677653	     28.96258991	     -7.65802327	      0.04645772	     -1.10236167	      0.03690228	     37.25025322	     -3.24014798	      0.65013957	     17.91128252	     18.16318256	     -7.65802327	    -27.50538398	     10.96418272	     -5.03574224	      2.74624879	    -14.74044095	    -14.91929210	     50.77698447	     90.00000001	      0.00000000	      0.00000000	     17.53607883	     -9.11536520	     36.14311135	     48.88289545	     90.00000001	      0.00000000	      0.00000000
      1.85000000	      4.94878960	      0.98474728	     12.71120236	     -0.60801211	      0.88589351	     -0.16530319	     11.48239885	     -5.35682302	    -27.21506655	     25.93607908	     -3.39188386	      0.45266998	     14.37347545	     30.30798175	     -7.65201309	      0.23784099	     -1.50593379	      0.31863168	     38.42182991	     -2.87001211	      0.67058744	     16.43290330	     17.00766623	     -7.65201309	    -27.64298739	     11.09949844	     -5.22018514	      2.91920111	    -14.81334618	    -14.59408161	     51.01737005	     90.00000001	      0.00000000	      0.00000000	     17.61203861	     -9.34651374	     37.10519356	     49.01796091	     90.00000001	      0.00000000	      0.00000000
      1.86000000	      5.04152742	      1.07193391	     12.76101111	     -0.60412098	      0.88664167	     -0.16369183	     10.90675806	     -5.25786790	    -27.22952673	     25.63261767	     -3.23033404	      0.44737357	     14.58172353	     30.46478655	     -7.64894105	      0.43498468	     -1.62419792	      0.36355317	     39.34617797	     -2.85001014	      0.68672035	     15.39291941	     16.71208958	     -7.64894105	    -27.64686028	     11.05949079	     -5.31646786	      3.10185425	    -14.80624453	    -14.54690853	     51.12483536	     90.00000001	      0.00000000	      0.00000000	     17.50881716	     -9.36433664	     37.35118917	     49.02042879	     90.00000001	      0.00000000	      0.00000000
      1.87000000	      5.18484135	      1.11821240	     12.80900756	     -0.60019829	      0.88737077	     -0.16214455	     10.27292585	     -5.14710239	    -27.14941676	     25.36780283	     -2.91167015	      0.44275168	     14.75564343	     30.51818090	     -7.64728217	      0.63233854	     -1.81775713	      0.37599452	     40.35860809	     -2.80615631	      0.70439059	     14.41018382	     16.50054965	     -7.64728217	    -27.68689146	     11.07051305	     -5.38744734	      3.29987405	    -14.81703589	    -14.50345752	     51.21847372	     90.00000001	      0.00000000	      0.00000000	     17.40886063	     -9.32545821	     37.56449939	     49.02591930	     90.00000001	      0.00000000	      0.00000000
      1.88000000	      5.34057879	      1.02118685	     12.86890318	     -0.59639099	      0.88805222	     -0.16047267	      9.62223574	     -4.73166693	    -26.92614061	     24.87808365	     -2.75366164	      0.43420447	     14.81533900	     30.25983635	     -7.64313677	      0.93677267	     -2.19632912	      0.60413590	     41.52086174	     -2.60767050	      0.72467575	     13.21921498	     15.88610457	     -7.64313677	    -27.73451430	     11.22306764	     -5.36054667	      3.48594191	    -14.87226467	    -14.40818256	     51.32154352	     90.00000001	      0.00000000	      0.00000000	     17.38176693	     -9.33231076	     37.97681397	     49.08648926	     90.00000001	      0.00000000	      0.00000000
      1.89000000	      5.52547774	      1.02730348	     12.92983943	     -0.59255301	      0.88869900	     -0.15897282	      8.91646662	     -4.55068618	    -26.69349097	     24.52758791	     -2.36427713	      0.42808717	     15.01550448	     30.12512659	     -7.64118203	      1.22401376	     -2.40509988	      0.73867906	     42.72024404	     -2.59448133	      0.74560892	     11.99702107	     15.64356597	     -7.64118203	    -27.81128044	     11.27806698	     -5.39521773	      3.66032439	    -14.87050394	    -14.37639922	     51.39091895	     90.00000001	      0.00000000	      0.00000000	     17.34658457	     -9.28931432	     38.16228311	     49.11631514	     90.00000001	      0.00000000	      0.00000000
